<?xml version="1.0" encoding="utf-8"?>
<!-- Generator: Adobe Illustrator 19.0.0, SVG Export Plug-In . SVG Version: 6.00 Build 0)  -->
<svg version="1.1" id="Layer_1" xmlns="http://www.w3.org/2000/svg" xmlns:xlink="http://www.w3.org/1999/xlink" x="0px" y="0px"
	 viewBox="0 0 160 175" style="enable-background:new 0 0 160 175;" xml:space="preserve">
<style type="text/css">
	.st0{fill:url(#XMLID_115_);}
	.st1{fill:url(#XMLID_116_);}
	.st2{fill:url(#XMLID_117_);}
	.st3{fill:url(#XMLID_118_);}
	.st4{opacity:0.32;fill:url(#XMLID_119_);}
	.st5{opacity:0.7;fill:url(#XMLID_120_);}
	.st6{opacity:0.68;fill:url(#XMLID_121_);}
	.st7{opacity:0.68;fill:url(#XMLID_122_);}
	.st8{opacity:0.68;fill:url(#XMLID_123_);}
</style>
<linearGradient id="XMLID_115_" gradientUnits="userSpaceOnUse" x1="3.9414" y1="49.4262" x2="163.0703" y2="15.6">
	<stop  offset="0" style="stop-color:#314755"/>
	<stop  offset="1" style="stop-color:#26A0DA"/>
</linearGradient>
<path id="XMLID_33_" class="st0" d="M151.7,36.6c-2.6,0.6-5.3,1.2-7.9,1.7c-7.2,1.6-14.4,3.1-21.6,4.7c-1.2,0.2-2.5,0.5-3.7-0.1
	c-0.1,0-0.1-0.1-0.2-0.1c-1.2-0.7-2-2.3-2.8-3.7c-3.3-5.7-8.6-9.2-14-11.5c-12-5.2-25.4-5.7-37.7-1.4c-4.8,1.7-9.7,4.3-13,8.8
	s-4.9,11.5-2.6,17c2.2,5.3,7.1,8,11.8,9.8c7.1,2.8,14.5,5.2,21.8,6.7c-1.6-0.2-3.1-0.1-4.7-0.1h-0.1c-0.1,0-0.3-0.6-0.4-0.6
	c-4.4-0.6-8.4-1.8-12.2-2.8c-29.2-7.6-41.4-24.7-46.3-39.2c0.7-1.1,1.5-2.2,2.3-3.2c0.8-0.9,1.5-1.9,2.3-2.7
	c0.2-0.2,0.5-0.5,0.7-0.7C32,10.7,42.7,6.2,53.5,3.3c18.9-5,38.7-5.2,57.6-0.3c0.9,0.2,1.8,0.5,2.7,0.7c7.5,2.2,14.8,5.2,21.3,10.1
	c7.1,5.2,16,16.7,17,22.1C152.1,36.1,151.8,36.6,151.7,36.6z"/>
<linearGradient id="XMLID_116_" gradientUnits="userSpaceOnUse" x1="4.8714" y1="70.0895" x2="167.448" y2="99.8041">
	<stop  offset="0" style="stop-color:#292E49"/>
	<stop  offset="1" style="stop-color:#536976"/>
</linearGradient>
<path id="XMLID_53_" class="st1" d="M155.5,141.9c-0.4,0.8-0.8,1.5-1.2,2.2c-6.8-24.7-35.2-34.2-53.8-37.8c-0.1,0-0.1,0-0.1,0
	c-0.1,0-0.3-0.1-0.4-0.1c-17.2-4.8-34.9-6.6-51.9-12.1c-8.3-2.7-16.6-6.3-23.6-12.5c-7-6.2-12.6-15.2-14-25.5
	C9,45.4,12.4,34.3,18.2,25.7C24.1,42.8,40,63.3,81.9,68c5.3,1.1,10.6,1.9,15.9,2.9c0,0,0,0,0,0c11.1,1.9,22.2,4.2,32.8,8.7
	c7.3,3.1,14.4,7.4,19.8,14c1,1.1,1.9,2.4,2.7,3.6C161.3,109.6,162.3,128.3,155.5,141.9z"/>
<linearGradient id="XMLID_117_" gradientUnits="userSpaceOnUse" x1="-31.2421" y1="141.5812" x2="141.4413" y2="140.6889">
	<stop  offset="0" style="stop-color:#26A0DA"/>
	<stop  offset="0.1651" style="stop-color:#2796CA"/>
	<stop  offset="0.4855" style="stop-color:#2B7AA2"/>
	<stop  offset="0.9259" style="stop-color:#304F61"/>
	<stop  offset="1" style="stop-color:#314755"/>
</linearGradient>
<path id="XMLID_34_" class="st2" d="M154.3,144.2c-0.5,0.8-0.9,1.5-1.4,2.2c-4.5,6.8-10.6,12-17.1,15.9c-1,0.6-1.9,1.1-2.9,1.7
	c-2.9,1.6-5.9,3.1-8.9,4.3c-3,1.3-6.1,2.3-9.3,3.2c-3.1,0.9-6.3,1.6-9.5,2.2c-3.2,0.6-6.4,1-9.6,1.3c-3.2,0.3-6.5,0.4-9.7,0.5
	c-3.3,0-6.5,0-9.8-0.2c-3.2-0.2-6.5-0.4-9.7-0.8c-3.3-0.3-6.6-0.9-9.9-1.5c-3.3-0.6-6.7-1.3-10-2.2c-3.3-0.9-6.6-1.9-9.8-3.1
	c-3.2-1.3-6.4-2.7-9.5-4.4C16.1,157,4.4,145.9,0.5,133.3c-0.3-0.9,0.2-1.8,1-2c6.9-1.2,13.8-2.5,20.7-3.8c3.9-0.7,7.8-1.4,11.7-2.1
	c0.4-0.1,0.7,0.2,0.9,0.6c4.3,10.2,12.5,17.4,21.5,21.1c9.1,3.8,19,4.3,28.6,3.8c4.2-0.2,8.5-0.6,12.7-1.5
	c5.3-1.1,10.4-2.8,15.2-5.7c3.5-2.1,6.8-5,8.4-9.3c2.5-6.6-0.2-14.8-4.7-19.6c-4.2-4.4-9.6-6.5-15-8.1c-0.1,0-0.1,0-0.1,0
	c-0.3-0.1-0.6-0.2-0.8-0.2c0.3,0.1,0.5,0.1,0.8,0.2C119.9,110.3,147.6,119.8,154.3,144.2z"/>
<linearGradient id="XMLID_118_" gradientUnits="userSpaceOnUse" x1="0" y1="-0.5196" x2="0" y2="-0.5196">
	<stop  offset="0" style="stop-color:#FFFFFF;stop-opacity:0"/>
	<stop  offset="1" style="stop-color:#000000"/>
</linearGradient>
<path id="XMLID_17_" class="st3" d="M0-0.5"/>
<linearGradient id="XMLID_119_" gradientUnits="userSpaceOnUse" x1="19.21" y1="31.2844" x2="79.2342" y2="59.2168">
	<stop  offset="0.3226" style="stop-color:#000000;stop-opacity:0.8"/>
	<stop  offset="0.4037" style="stop-color:#040404;stop-opacity:0.7641"/>
	<stop  offset="0.4883" style="stop-color:#111111;stop-opacity:0.7266"/>
	<stop  offset="0.5745" style="stop-color:#262626;stop-opacity:0.6885"/>
	<stop  offset="0.6618" style="stop-color:#434343;stop-opacity:0.6498"/>
	<stop  offset="0.7499" style="stop-color:#696969;stop-opacity:0.6108"/>
	<stop  offset="0.8388" style="stop-color:#979797;stop-opacity:0.5714"/>
	<stop  offset="0.9266" style="stop-color:#CCCCCC;stop-opacity:0.5325"/>
	<stop  offset="1" style="stop-color:#FFFFFF;stop-opacity:0.5"/>
</linearGradient>
<path id="XMLID_25_" class="st4" d="M76.8,67.3c-4.4-0.6-8.4-1.5-12.2-2.5c-29.2-7.6-41.4-24.6-46.3-39.1c0.7-1.1,1.5-2.2,2.3-3.2
	c0.8-0.9,1.5-1.8,2.3-2.7c0.2-0.2,0.5-0.5,0.7-0.7C25.5,35.3,35.6,59.4,76.8,67.3z"/>
<linearGradient id="XMLID_120_" gradientUnits="userSpaceOnUse" x1="113.775" y1="137.0976" x2="153.5634" y2="105.4932">
	<stop  offset="0" style="stop-color:#FFFFFF;stop-opacity:0.5"/>
	<stop  offset="7.380247e-003" style="stop-color:#F6F6F6;stop-opacity:0.5022"/>
	<stop  offset="4.767627e-002" style="stop-color:#C8C8C8;stop-opacity:0.5143"/>
	<stop  offset="9.308982e-002" style="stop-color:#9D9D9D;stop-opacity:0.5279"/>
	<stop  offset="0.1419" style="stop-color:#777777;stop-opacity:0.5426"/>
	<stop  offset="0.195" style="stop-color:#575757;stop-opacity:0.5585"/>
	<stop  offset="0.2537" style="stop-color:#3B3B3B;stop-opacity:0.5761"/>
	<stop  offset="0.32" style="stop-color:#252525;stop-opacity:0.596"/>
	<stop  offset="0.3974" style="stop-color:#141414;stop-opacity:0.6192"/>
	<stop  offset="0.4931" style="stop-color:#090909;stop-opacity:0.6479"/>
	<stop  offset="0.6274" style="stop-color:#020202;stop-opacity:0.6882"/>
	<stop  offset="1" style="stop-color:#000000;stop-opacity:0.8"/>
</linearGradient>
<path id="XMLID_26_" class="st5" d="M154.3,144.2c-0.5,0.8-0.9,1.5-1.4,2.2c-16.4-32.4-49.4-39.4-51.4-39.8c-0.1,0-0.1,0-0.1,0
	l0-0.1C119.9,110.3,147.6,119.8,154.3,144.2z"/>
<linearGradient id="XMLID_121_" gradientUnits="userSpaceOnUse" x1="128.6981" y1="24.2415" x2="139.1447" y2="14.1957">
	<stop  offset="5.376344e-003" style="stop-color:#000000;stop-opacity:0.8"/>
	<stop  offset="4.274821e-002" style="stop-color:#202020;stop-opacity:0.7887"/>
	<stop  offset="0.1039" style="stop-color:#4F4F4F;stop-opacity:0.7703"/>
	<stop  offset="0.1706" style="stop-color:#797979;stop-opacity:0.7502"/>
	<stop  offset="0.2415" style="stop-color:#9D9D9D;stop-opacity:0.7288"/>
	<stop  offset="0.3177" style="stop-color:#BCBCBC;stop-opacity:0.7058"/>
	<stop  offset="0.4008" style="stop-color:#D4D4D4;stop-opacity:0.6807"/>
	<stop  offset="0.4935" style="stop-color:#E7E7E7;stop-opacity:0.6528"/>
	<stop  offset="0.6014" style="stop-color:#F5F5F5;stop-opacity:0.6202"/>
	<stop  offset="0.7382" style="stop-color:#FDFDFD;stop-opacity:0.579"/>
	<stop  offset="1" style="stop-color:#FFFFFF;stop-opacity:0.5"/>
</linearGradient>
<path id="XMLID_31_" class="st6" d="M152.2,36.5c-2.8,0.6-5.6,1.2-8.4,1.8c-2.7-15.4-19.9-28.2-30-34.6c7.5,2.2,14.8,5.2,21.3,10.1
	C142.4,19.2,151.9,31.4,152.2,36.5z"/>
<linearGradient id="XMLID_122_" gradientUnits="userSpaceOnUse" x1="16.2106" y1="150.7937" x2="98.9648" y2="127.1936">
	<stop  offset="0" style="stop-color:#FFFFFF;stop-opacity:0.5"/>
	<stop  offset="0.2618" style="stop-color:#FDFDFD;stop-opacity:0.579"/>
	<stop  offset="0.3986" style="stop-color:#F5F5F5;stop-opacity:0.6202"/>
	<stop  offset="0.5065" style="stop-color:#E7E7E7;stop-opacity:0.6528"/>
	<stop  offset="0.5992" style="stop-color:#D4D4D4;stop-opacity:0.6807"/>
	<stop  offset="0.6823" style="stop-color:#BCBCBC;stop-opacity:0.7058"/>
	<stop  offset="0.7585" style="stop-color:#9D9D9D;stop-opacity:0.7288"/>
	<stop  offset="0.8294" style="stop-color:#797979;stop-opacity:0.7502"/>
	<stop  offset="0.8961" style="stop-color:#4F4F4F;stop-opacity:0.7703"/>
	<stop  offset="0.9572" style="stop-color:#202020;stop-opacity:0.7887"/>
	<stop  offset="0.9946" style="stop-color:#000000;stop-opacity:0.8"/>
</linearGradient>
<path id="XMLID_29_" class="st7" d="M95.8,149.4L95.8,149.4c-39,15.5-64.6-8.4-74.5-21.9c4.1-0.7,9-1.5,13.1-2.2
	c3.6,9,12.5,18,21.6,21.8c9.1,3.8,18.2,4.3,27.8,3.8C88.1,150.8,93.8,150.3,95.8,149.4z"/>
<linearGradient id="XMLID_123_" gradientUnits="userSpaceOnUse" x1="97.8313" y1="82.2056" x2="153.1234" y2="82.2056">
	<stop  offset="5.376344e-003" style="stop-color:#000000;stop-opacity:0.8"/>
	<stop  offset="2.914213e-002" style="stop-color:#121212;stop-opacity:0.7928"/>
	<stop  offset="9.920751e-002" style="stop-color:#444444;stop-opacity:0.7717"/>
	<stop  offset="0.1748" style="stop-color:#707070;stop-opacity:0.7489"/>
	<stop  offset="0.2542" style="stop-color:#979797;stop-opacity:0.725"/>
	<stop  offset="0.3383" style="stop-color:#B7B7B7;stop-opacity:0.6996"/>
	<stop  offset="0.4287" style="stop-color:#D1D1D1;stop-opacity:0.6723"/>
	<stop  offset="0.5276" style="stop-color:#E6E6E6;stop-opacity:0.6425"/>
	<stop  offset="0.6393" style="stop-color:#F4F4F4;stop-opacity:0.6088"/>
	<stop  offset="0.7748" style="stop-color:#FCFCFC;stop-opacity:0.5679"/>
	<stop  offset="1" style="stop-color:#FFFFFF;stop-opacity:0.5"/>
</linearGradient>
<path id="XMLID_30_" class="st8" d="M150.4,93.5c-19.8-3.7-39.5-14.3-52.6-22.7c11.1,1.9,22.2,4.2,32.8,8.7
	C137.8,82.7,145,87,150.4,93.5z"/>
</svg>
