<?xml version="1.0" standalone="no"?>
<!DOCTYPE svg PUBLIC "-//W3C//DTD SVG 20010904//EN"
 "http://www.w3.org/TR/2001/REC-SVG-20010904/DTD/svg10.dtd">
<svg version="1.0" xmlns="http://www.w3.org/2000/svg"
 width="700.000000pt" height="700.000000pt" viewBox="0 0 700.000000 700.000000"
 preserveAspectRatio="xMidYMid meet">
<metadata>
Created by potrace 1.11, written by Peter Selinger 2001-2013
</metadata>
<g transform="translate(0.000000,700.000000) scale(0.100000,-0.100000)"
fill="#000000" stroke="none">
<path d="M3109 6996 c-2 -3 -32 -7 -65 -11 -32 -3 -71 -8 -84 -10 -14 -3 -38
-7 -55 -9 -16 -3 -45 -7 -62 -10 -18 -3 -48 -8 -65 -11 -18 -3 -40 -8 -48 -10
-8 -2 -30 -7 -49 -10 -82 -14 -386 -97 -491 -135 -63 -22 -119 -42 -125 -44
-10 -3 -16 -5 -83 -32 -18 -7 -33 -13 -35 -12 -1 1 -69 -34 -151 -76 -140 -71
-317 -180 -324 -198 -2 -4 -10 -8 -17 -8 -7 0 -15 -3 -17 -8 -1 -4 -23 -23
-48 -42 -55 -41 -280 -266 -280 -279 0 -5 -6 -16 -13 -23 -7 -7 -24 -29 -37
-48 -13 -19 -29 -38 -35 -42 -5 -4 -6 -8 -1 -8 4 0 -3 -15 -16 -32 -29 -39
-110 -184 -108 -194 1 -4 -2 -10 -7 -13 -22 -15 -124 -299 -148 -416 -20 -93
-26 -131 -31 -205 -17 -228 2 -411 64 -605 14 -44 25 -82 24 -85 0 -3 6 -16
13 -30 7 -14 30 -61 51 -105 48 -102 103 -191 170 -280 245 -325 548 -533
1049 -721 11 -4 25 -8 30 -10 13 -3 74 -25 100 -35 11 -4 45 -15 75 -24 30 -9
69 -21 85 -26 17 -6 41 -12 55 -15 14 -3 34 -8 45 -11 11 -4 25 -8 30 -9 6 -1
55 -13 110 -28 173 -44 284 -70 470 -106 28 -6 61 -13 75 -16 14 -3 57 -12 95
-20 39 -8 81 -17 95 -19 14 -3 48 -10 75 -15 91 -17 110 -21 127 -26 10 -3 30
-7 45 -10 16 -2 48 -9 73 -14 25 -5 56 -12 70 -14 25 -4 143 -31 295 -67 85
-20 86 -21 155 -39 62 -17 68 -18 125 -30 28 -6 58 -15 68 -21 10 -5 22 -7 27
-4 4 3 10 1 12 -3 3 -8 118 -54 173 -70 11 -3 22 -8 25 -11 3 -4 25 -15 50
-26 73 -32 189 -113 258 -179 184 -175 286 -459 249 -696 -51 -332 -382 -579
-947 -709 -63 -14 -110 -23 -145 -27 -16 -2 -41 -6 -55 -8 -13 -3 -54 -9 -90
-12 -36 -4 -78 -8 -95 -10 -42 -4 -338 -16 -410 -16 -104 1 -335 16 -383 26
-15 3 -45 9 -67 12 -53 8 -65 10 -95 17 -14 4 -36 9 -50 11 -43 7 -218 63
-290 94 -127 53 -314 165 -401 238 -82 70 -230 228 -286 305 -62 86 -98 146
-155 259 -20 39 -39 64 -48 64 -8 -1 -31 -5 -50 -9 -19 -3 -51 -8 -70 -10 -19
-2 -35 -4 -35 -5 0 -2 -23 -7 -70 -14 -22 -4 -76 -13 -120 -22 -44 -8 -98 -17
-119 -20 -21 -2 -42 -7 -46 -9 -4 -3 -25 -7 -46 -10 -22 -4 -47 -8 -57 -11
-10 -3 -30 -7 -45 -9 -15 -2 -74 -13 -132 -24 -58 -11 -116 -22 -130 -25 -14
-2 -88 -15 -165 -29 -77 -14 -159 -28 -182 -32 -28 -4 -50 -15 -62 -31 -19
-25 -19 -25 9 -107 35 -104 124 -287 143 -295 4 -2 7 -8 7 -13 0 -14 116 -174
184 -253 67 -79 196 -209 271 -273 28 -24 57 -49 65 -56 8 -7 33 -27 55 -43
22 -16 42 -32 45 -35 3 -3 30 -22 60 -42 30 -20 60 -41 65 -45 50 -41 297
-172 405 -215 25 -10 56 -24 70 -32 24 -12 259 -94 290 -100 8 -2 16 -4 18 -5
1 -2 7 -4 12 -5 6 -1 11 -3 13 -5 1 -1 9 -3 17 -5 8 -1 35 -8 60 -16 72 -20
99 -27 140 -35 14 -3 33 -7 42 -10 17 -5 46 -12 88 -20 171 -34 219 -43 245
-47 17 -3 46 -8 65 -11 19 -3 49 -8 65 -11 39 -7 118 -17 255 -33 36 -4 313
-7 615 -7 485 0 623 4 708 21 12 2 42 7 67 10 25 3 54 8 65 10 11 2 34 7 50 9
17 3 37 8 45 10 8 2 31 7 50 10 19 3 53 11 75 16 22 6 48 13 57 14 44 9 213
58 313 91 200 66 370 144 630 290 50 28 223 143 239 159 8 8 17 15 21 15 4 0
12 6 20 13 7 6 32 28 56 47 106 85 273 264 350 375 18 27 37 54 42 60 21 28
56 85 52 85 -2 0 11 26 28 58 35 62 79 160 93 207 2 6 16 54 32 107 16 53 27
99 25 102 -3 3 -1 11 3 18 5 7 9 22 11 33 1 11 5 38 8 60 19 122 23 176 20
340 -1 99 -8 204 -14 233 -6 29 -10 56 -9 60 2 9 -20 116 -32 157 -5 17 -17
55 -26 85 -19 63 -85 232 -93 240 -3 3 -18 30 -33 60 -80 162 -271 387 -433
510 -33 25 -69 53 -79 63 -11 9 -25 17 -31 17 -7 0 -20 9 -30 20 -10 11 -22
20 -26 20 -4 0 -27 13 -51 29 -47 32 -330 171 -347 171 -6 0 -19 4 -29 9 -32
17 -87 40 -137 56 -27 9 -59 20 -70 25 -73 32 -540 156 -617 163 -10 1 -18 4
-18 7 0 3 -10 6 -22 7 -13 0 -48 6 -78 12 -64 13 -107 22 -135 26 -11 1 -35 6
-52 9 -18 3 -48 8 -65 11 -18 3 -55 10 -83 15 -27 5 -66 12 -85 14 -19 2 -46
7 -60 10 -29 7 -98 18 -125 21 -11 1 -31 5 -45 9 -14 3 -38 8 -55 11 -16 3
-66 12 -110 21 -105 20 -116 22 -210 33 -101 13 -121 17 -225 48 -47 13 -94
26 -104 28 -28 6 -88 25 -111 35 -17 7 -117 41 -135 45 -3 1 -18 7 -33 13 -16
7 -34 12 -41 12 -6 0 -16 4 -21 8 -6 5 -39 19 -75 32 -163 57 -302 136 -392
222 -53 51 -128 162 -128 189 0 10 -4 20 -9 23 -15 10 -35 129 -34 206 2 195
80 390 210 525 51 53 138 125 152 125 6 0 11 4 11 8 0 16 225 122 331 156 219
70 399 99 624 100 189 1 276 -7 445 -43 80 -16 118 -26 215 -55 6 -2 18 -6 27
-10 9 -4 22 -9 30 -10 7 -1 30 -10 52 -19 21 -9 41 -17 43 -17 22 0 241 -117
280 -150 7 -5 15 -10 19 -10 10 0 101 -79 157 -135 28 -27 84 -102 125 -165
105 -161 118 -172 189 -176 35 -1 99 7 163 22 58 14 121 27 140 30 19 2 53 10
75 15 42 12 62 16 110 24 17 3 38 8 47 11 16 5 44 11 83 19 11 2 43 9 70 15
28 6 61 13 75 16 14 3 75 16 135 29 61 13 124 27 140 30 17 3 77 16 135 28
103 23 105 24 108 53 2 16 -4 46 -13 67 -8 20 -14 38 -13 39 1 2 -11 22 -25
45 -15 24 -27 45 -27 49 0 11 -120 186 -184 268 -65 84 -318 346 -374 387 -19
13 -40 30 -47 37 -8 6 -18 12 -23 12 -5 0 -17 9 -27 20 -10 11 -24 20 -32 20
-7 0 -13 4 -13 8 0 5 -15 16 -32 25 -18 10 -51 28 -73 42 -36 23 -218 113
-272 136 -13 5 -33 13 -45 19 -13 5 -54 22 -93 36 -61 22 -111 39 -260 83 -16
5 -55 15 -85 21 -30 7 -66 16 -80 21 -14 5 -41 11 -60 14 -19 3 -62 12 -95 19
-33 8 -82 17 -110 22 -27 4 -52 8 -55 9 -3 0 -32 5 -65 9 -32 4 -68 11 -80 14
-24 7 -1079 15 -1086 8z m1378 -4282 c-3 -3 -12 -4 -19 -1 -8 3 -5 6 6 6 11 1
17 -2 13 -5z"/>
</g>
</svg>
